<?xml version="1.0" encoding="iso-8859-1"?>
<!-- Generator: Adobe Illustrator 19.0.0, SVG Export Plug-In . SVG Version: 6.00 Build 0)  -->
<svg version="1.1" id="Capa_1" xmlns="http://www.w3.org/2000/svg" xmlns:xlink="http://www.w3.org/1999/xlink" x="0px" y="0px"
	 viewBox="0 0 512 512" style="enable-background:new 0 0 512 512;" xml:space="preserve">
<g>
	<g>
		<path d="M298.07,118.93c-1.86-1.86-4.44-2.93-7.07-2.93s-5.21,1.069-7.07,2.93c-1.86,1.86-2.93,4.44-2.93,7.07
			s1.07,5.21,2.93,7.069c1.86,1.861,4.44,2.931,7.07,2.931s5.21-1.07,7.07-2.931c1.86-1.859,2.93-4.439,2.93-7.069
			S299.93,120.79,298.07,118.93z"/>
	</g>
</g>
<g>
	<g>
		<path d="M482,116h-8c-5.523,0-10,4.478-10,10c0,5.522,4.477,10,10,10h8c5.514,0,10,4.486,10,10v336c0,5.514-4.486,10-10,10H30
			c-5.514,0-10-4.486-10-10V146c0-5.514,4.486-10,10-10h218.5c5.523,0,10-4.478,10-10c0-5.522-4.477-10-10-10H30
			c-16.542,0-30,13.458-30,30v336c0,16.542,13.458,30,30,30h452c16.542,0,30-13.458,30-30V146C512,129.458,498.542,116,482,116z"/>
	</g>
</g>
<g>
	<g>
		<path d="M438,280c-18.748,0-34,15.252-34,34s15.252,34,34,34s34-15.252,34-34S456.748,280,438,280z M438,328
			c-7.72,0-14-6.28-14-14c0-7.72,6.28-14,14-14c7.72,0,14,6.28,14,14C452,321.72,445.72,328,438,328z"/>
	</g>
</g>
<g>
	<g>
		<path d="M462,164h-48c-5.523,0-10,4.478-10,10v76c0,5.522,4.477,10,10,10h48c5.523,0,10-4.478,10-10v-76
			C472,168.478,467.523,164,462,164z M452,240h-28v-56h28V240z"/>
	</g>
</g>
<g>
	<g>
		<path d="M462,368h-48c-5.523,0-10,4.478-10,10v76c0,5.522,4.477,10,10,10h48c5.523,0,10-4.478,10-10v-76
			C472,372.478,467.523,368,462,368z M452,444h-28v-56h28V444z"/>
	</g>
</g>
<g>
	<g>
		<path d="M508.384,35.038l-32.11-32.11C474.398,1.054,471.854,0,469.202,0c-2.652,0-5.196,1.054-7.071,2.929l-39.256,39.256
			l-0.001,0.001l-0.001,0.001l-130.219,130.22c-0.001,0.001-0.003,0.002-0.004,0.004c-0.001,0.002-0.002,0.003-0.004,0.004
			l-29.915,29.915c-10.286,10.285-12.269,25.772-5.962,38.071l-11.334,11.334c-21.19-7.249-43.666-11.034-66.732-11.034
			C132.115,240.701,91.15,265.207,68,302V192h176c5.523,0,10-4.478,10-10c0-5.522-4.477-10-10-10H58c-5.523,0-10,4.478-10,10v264
			c0,5.522,4.477,10,10,10h316c5.523,0,10-4.478,10-10V223.333c0-5.522-4.477-10-10-10s-10,4.478-10,10v133.99
			c-9.921-20.714-23.386-39.812-40.097-56.524c-17.19-17.19-36.904-30.945-58.306-40.941l5.307-5.307
			c4.57,2.355,9.664,3.61,14.953,3.61c8.736,0,16.949-3.402,23.126-9.579l29.914-29.914c0.002-0.002,0.003-0.003,0.005-0.005
			s0.003-0.003,0.005-0.005L469.122,88.443c0.002-0.002,0.003-0.003,0.005-0.005s0.003-0.003,0.005-0.005l39.252-39.252
			C512.289,45.276,512.289,38.944,508.384,35.038z M68,436v-9.969c1.514,1.785,3.091,3.53,4.765,5.204s3.418,3.25,5.204,4.765H68z
			 M363.728,436H175.493c8.234-9.766,13.209-22.365,13.209-36.109c0-21.222-17.265-38.487-38.487-38.487
			c-15.23,0-27.62,12.391-27.62,27.621c0,5.522,4.477,10,10,10s10-4.478,10-10c0-4.202,3.418-7.621,7.62-7.621
			c10.194,0,18.487,8.293,18.487,18.487c0,19.91-16.198,36.108-36.107,36.109C96.978,436,68,407.022,68,371.403
			c0-61.041,49.661-110.702,110.702-110.702C277.521,260.701,358.515,338.458,363.728,436z M294.841,234.44
			c-2.399,2.4-5.59,3.722-8.983,3.722c-3.394,0-6.584-1.321-8.984-3.722c-2.4-2.399-3.722-5.59-3.722-8.984
			c-0.001-3.394,1.321-6.585,3.721-8.984l22.848-22.848l17.968,17.968L294.841,234.44z M331.831,197.449l-17.968-17.968
			L429.945,63.399l17.968,17.968L331.831,197.449z M462.056,67.224l-17.968-17.968l25.114-25.113L487.17,42.11L462.056,67.224z"/>
	</g>
</g>
<g>
</g>
<g>
</g>
<g>
</g>
<g>
</g>
<g>
</g>
<g>
</g>
<g>
</g>
<g>
</g>
<g>
</g>
<g>
</g>
<g>
</g>
<g>
</g>
<g>
</g>
<g>
</g>
<g>
</g>
</svg>
