<?xml version="1.0" encoding="utf-8"?>
<!-- Generator: Adobe Illustrator 23.1.1, SVG Export Plug-In . SVG Version: 6.00 Build 0)  -->
<svg version="1.1" id="Layer_1" xmlns="http://www.w3.org/2000/svg" xmlns:xlink="http://www.w3.org/1999/xlink" x="0px" y="0px"
	 viewBox="0 0 496 496" style="enable-background:new 0 0 496 496;" xml:space="preserve">
<path d="M496,0H0v336h148L88,478.4V496h61.4l64-160h2.6v128h64V336h2.6l64,160H408v-17.6L348,336h148V0z M480,16v256H16V16H480z
	 M138.6,480h-33.9l60.6-144h30.9L138.6,480z M264,448h-32V336h32V448z M391.3,480h-33.9l-57.6-144h30.9L391.3,480z M16,320v-32h464
	v32H16z"/>
<path d="M288,168c0,48.5,39.5,88,88,88s88-39.5,88-88s-39.5-88-88-88S288,119.5,288,168z M304.5,176H368v63.5
	C334.7,235.8,308.2,209.3,304.5,176z M448,168c0,37-28.1,67.5-64,71.5v-143C419.9,100.5,448,131,448,168z M368,96.5V160h-63.5
	C308.2,126.7,334.7,100.2,368,96.5z"/>
<path d="M48,117.4V192h128v-74.6l11,8.8l10-12.5l-85-68l-85,68l10,12.5L48,117.4z M128,176H96v-32h32V176z M160,104.6V176h-16v-48
	H80v48H64v-71.4l48-38.4L160,104.6z"/>
<path d="M32,240h16v16H32V240z"/>
<path d="M64,240h128v16H64V240z"/>
<path d="M32,208h160v16H32V208z"/>
<path d="M224,48h16v72h16V48h16v56h16V48h16v32h16V32H208v72h16V48z"/>
</svg>
