<?xml version="1.0" encoding="utf-8"?>
<!-- Generator: Adobe Illustrator 23.1.1, SVG Export Plug-In . SVG Version: 6.00 Build 0)  -->
<svg version="1.1" id="Capa_1" xmlns="http://www.w3.org/2000/svg" xmlns:xlink="http://www.w3.org/1999/xlink" x="0px" y="0px"
	 viewBox="0 0 83.2 53" style="enable-background:new 0 0 83.2 53;" xml:space="preserve">
<path d="M77.9,5.4C74.5,1.9,70,0,65.5,0c-3.1,0-6.1,0.9-8.8,2.5l-6.3,3.9C49.9,5,48.4,4,46.8,4h-0.1c-1,0-1.9,0.3-2.5,1
	c-0.7-0.6-1.5-1-2.5-1h-0.1c-1,0-1.9,0.3-2.5,1c-0.7-0.6-1.5-1-2.5-1h-0.1c-1.6,0-2.9,1-3.6,2.5l-6.3-3.9c-5.5-3.4-12.1-3.4-17.7,0
	S0,12.1,0,18.9C0,24.1,1.9,29,5.4,32.5c3.3,3.4,7.8,5.3,12.3,5.3c3.1,0,6.1-0.9,8.8-2.5l6.3-3.9c0.6,1.4,2,2.5,3.6,2.5h0.1
	c1,0,1.9-0.3,2.5-1c0.7,0.6,1.5,1,2.5,1h0.1c0.4,0,0.8-0.1,1.2-0.2v15.1c0,2.3,1.7,4.2,3.9,4.2h0.1c2.2,0,3.9-1.8,3.9-4.2V31.6
	l6,3.7c2.8,1.7,5.8,2.5,8.8,2.5c3,0,6.1-0.8,8.8-2.5c5.5-3.4,8.8-9.5,8.8-16.4C83.2,13.7,81.3,8.9,77.9,5.4z M50.7,18.1l11.5,7
	c1.1,0.7,2.2,1,3.3,1l0,0c1.7,0,3.5-0.8,4.7-2.1c1.3-1.4,2-3.1,2-5.1c0-4.9-4-7.2-6.7-7.2c-1.2,0-2.2,0.3-3.3,1L55,17.1l-2.8-1.7
	l8.7-5.3c1.5-0.9,3.1-1.4,4.7-1.4c4.5,0,9.4,3.8,9.4,10.1c0,2.8-1,5.3-2.8,7.2s-4.2,2.9-6.6,2.9c-1.6,0-3.2-0.5-4.7-1.4l-10.1-6.2
	L50.7,18.1L50.7,18.1z M57.7,18.9l5.9-3.6c0.6-0.4,1.3-0.6,1.9-0.6c1.2,0,3.9,1,3.9,4.2c0,1.2-0.4,2.2-1.2,2.9S66.5,23,65.5,23l0,0
	c-0.6,0-1.3-0.2-1.9-0.6L57.7,18.9z M28.3,17.2L21,12.8c-1.1-0.7-2.2-1-3.3-1C15,11.8,11,14.1,11,19s4,7.2,6.7,7.2
	c1.2,0,2.2-0.3,3.3-1l11.5-7v3.4l-10.1,6.2c-1.5,0.9-3.1,1.4-4.7,1.4c-4.5,0-9.4-3.8-9.4-10.1S13.2,9,17.7,9c1.6,0,3.2,0.5,4.7,1.4
	l8.6,5.3L28.3,17.2z M19.6,22.5c-0.6,0.4-1.3,0.6-1.9,0.6c-1.2,0-3.9-1-3.9-4.2s2.7-4.2,3.9-4.2c0.6,0,1.3,0.2,1.9,0.6l5.9,3.6
	L19.6,22.5z M25.1,32.7c-2.3,1.4-4.8,2.2-7.4,2.2c-3.8,0-7.6-1.6-10.4-4.5c-2.9-3-4.5-7.1-4.5-11.5c0-5.7,2.8-10.9,7.4-13.8
	c4.7-2.9,10.3-2.9,14.9,0l7.3,4.5V13l-8.7-5.3c-1.9-1.2-4-1.8-6.1-1.8c-5.9,0-12.2,5-12.2,13s6.3,13,12.2,13c2.1,0,4.2-0.6,6.1-1.8
	l8.7-5.3v3.4L25.1,32.7z M36.5,31L36.5,31c-0.7,0-1.3-0.5-1.3-1.2V8.1c0-0.7,0.5-1.2,1.2-1.2h0.1c0.6,0,1.2,0.5,1.2,1.2v21.6
	C37.6,30.4,37.1,31,36.5,31z M41.7,31L41.7,31c-0.7,0-1.3-0.5-1.3-1.2V8.1c0-0.7,0.5-1.2,1.2-1.2h0.1c0.6,0,1.2,0.5,1.2,1.2v21.6
	C42.8,30.4,42.3,31,41.7,31z M48,48.9c0,0.7-0.5,1.2-1.2,1.2h-0.1c-0.6,0-1.2-0.5-1.2-1.2V29.7V8.1c0-0.7,0.5-1.2,1.2-1.2h0.1
	c0.6,0,1.2,0.5,1.2,1.2V48.9z M73,32.7c-4.7,2.9-10.3,2.9-14.9,0l-7.3-4.5v-3.4l8.7,5.3c1.9,1.2,4,1.8,6.1,1.8
	c3.1,0,6.2-1.4,8.5-3.7c2.4-2.5,3.7-5.7,3.7-9.4c0-8.1-6.3-13-12.2-13c-2.1,0-4.2,0.6-6.1,1.8L50.7,13V9.7L58,5.2
	C60.4,3.7,62.9,3,65.5,3c3.8,0,7.6,1.6,10.4,4.5c2.9,3,4.5,7,4.5,11.4C80.5,24.7,77.7,29.9,73,32.7z"/>
</svg>
