<?xml version="1.0" encoding="utf-8"?>
<!-- Generator: Adobe Illustrator 23.1.1, SVG Export Plug-In . SVG Version: 6.00 Build 0)  -->
<svg version="1.1" id="Capa_1" xmlns="http://www.w3.org/2000/svg" xmlns:xlink="http://www.w3.org/1999/xlink" x="0px" y="0px"
	 viewBox="0 0 512 512" style="enable-background:new 0 0 512 512;" xml:space="preserve">
<g>
	<g>
		<path d="M298.1,118.9c-1.9-1.9-4.4-2.9-7.1-2.9s-5.2,1.1-7.1,2.9c-1.9,1.9-2.9,4.4-2.9,7.1c0,2.6,1.1,5.2,2.9,7.1
			c1.9,1.9,4.4,2.9,7.1,2.9s5.2-1.1,7.1-2.9c1.9-1.9,2.9-4.4,2.9-7.1S299.9,120.8,298.1,118.9z"/>
	</g>
</g>
<g>
	<g>
		<path d="M482,116h-8c-5.5,0-10,4.5-10,10s4.5,10,10,10h8c5.5,0,10,4.5,10,10v336c0,5.5-4.5,10-10,10H30c-5.5,0-10-4.5-10-10V146
			c0-5.5,4.5-10,10-10h218.5c5.5,0,10-4.5,10-10s-4.5-10-10-10H30c-16.5,0-30,13.5-30,30v336c0,16.5,13.5,30,30,30h452
			c16.5,0,30-13.5,30-30V146C512,129.5,498.5,116,482,116z"/>
	</g>
</g>
<g>
	<g>
		<path d="M438,280c-18.7,0-34,15.3-34,34s15.3,34,34,34s34-15.3,34-34S456.7,280,438,280z M438,328c-7.7,0-14-6.3-14-14
			s6.3-14,14-14s14,6.3,14,14S445.7,328,438,328z"/>
	</g>
</g>
<g>
	<g>
		<path d="M462,164h-48c-5.5,0-10,4.5-10,10v76c0,5.5,4.5,10,10,10h48c5.5,0,10-4.5,10-10v-76C472,168.5,467.5,164,462,164z
			 M452,240h-28v-56h28V240z"/>
	</g>
</g>
<g>
	<g>
		<path d="M462,368h-48c-5.5,0-10,4.5-10,10v76c0,5.5,4.5,10,10,10h48c5.5,0,10-4.5,10-10v-76C472,372.5,467.5,368,462,368z
			 M452,444h-28v-56h28V444z"/>
	</g>
</g>
<g>
	<g>
		<path d="M508.4,35L476.3,2.9C474.4,1,471.9,0,469.2,0s-5.2,1.1-7.1,2.9l-39.3,39.3l0,0l0,0L292.7,172.4l0,0l0,0l-29.9,29.9
			c-10.3,10.3-12.3,25.8-6,38.1l-11.3,11.3c-21.2-7.2-43.7-11-66.7-11c-46.6,0-87.6,24.5-110.7,61.3V192h176c5.5,0,10-4.5,10-10
			s-4.5-10-10-10H58c-5.5,0-10,4.5-10,10v264c0,5.5,4.5,10,10,10h316c5.5,0,10-4.5,10-10V223.3c0-5.5-4.5-10-10-10s-10,4.5-10,10
			v134c-9.9-20.7-23.4-39.8-40.1-56.5c-17.2-17.2-36.9-30.9-58.3-40.9l5.3-5.3c4.6,2.4,9.7,3.6,15,3.6c8.7,0,16.9-3.4,23.1-9.6
			l29.9-29.9l0,0l0,0L469.1,88.4l0,0l0,0l39.3-39.3C512.3,45.3,512.3,38.9,508.4,35z M68,436v-10c1.5,1.8,3.1,3.5,4.8,5.2
			s3.4,3.2,5.2,4.8H68L68,436z M363.7,436H175.5c8.2-9.8,13.2-22.4,13.2-36.1c0-21.2-17.3-38.5-38.5-38.5
			c-15.2,0-27.6,12.4-27.6,27.6c0,5.5,4.5,10,10,10c5.5,0,10-4.5,10-10c0-4.2,3.4-7.6,7.6-7.6c10.2,0,18.5,8.3,18.5,18.5
			c0,19.9-16.2,36.1-36.1,36.1C97,436,68,407,68,371.4c0-61,49.7-110.7,110.7-110.7C277.5,260.7,358.5,338.5,363.7,436z
			 M294.8,234.4c-2.4,2.4-5.6,3.7-9,3.7s-6.6-1.3-9-3.7s-3.7-5.6-3.7-9s1.3-6.6,3.7-9l22.8-22.8l18,18L294.8,234.4z M331.8,197.4
			l-18-18l116.1-116l18,18L331.8,197.4z M462.1,67.2l-18-18l25.1-25.1l18,18L462.1,67.2z"/>
	</g>
</g>
</svg>
